<svg width="91" height="32" viewBox="0 0 91 32" fill="none" xmlns="http://www.w3.org/2000/svg">
<path d="M20.7866 2.33337C16.8266 2.33337 13.6133 5.54671 13.6133 9.50671C13.6133 13.4667 16.8266 16.68 20.7866 16.68C24.7466 16.68 27.9599 13.4667 27.9599 9.50671C27.9599 5.54671 24.7466 2.33337 20.7866 2.33337Z" fill="#3A99F1"/>
<path d="M8.48004 17.3733C6.04004 17.3733 4.04004 19.36 4.04004 21.8133C4.04004 24.2666 6.02671 26.2533 8.48004 26.2533C10.92 26.2533 12.92 24.2666 12.92 21.8133C12.92 19.36 10.92 17.3733 8.48004 17.3733Z" fill="#3A99F1"/>
<path d="M22.16 22.16C20.0933 22.16 18.4133 23.84 18.4133 25.9067C18.4133 27.9734 20.0933 29.6534 22.16 29.6534C24.2267 29.6534 25.9067 27.9734 25.9067 25.9067C25.9067 23.84 24.2267 22.16 22.16 22.16Z" fill="#3A99F1"/>
<path d="M43.668 12.59C44.6573 12.59 45.446 12.8373 46.034 13.332C46.6313 13.8267 47.0047 14.48 47.154 15.292H44.914C44.8487 14.9747 44.6993 14.7273 44.466 14.55C44.242 14.3633 43.9573 14.27 43.612 14.27C43.3413 14.27 43.136 14.3307 42.996 14.452C42.856 14.564 42.786 14.7273 42.786 14.942C42.786 15.1847 42.912 15.3667 43.164 15.488C43.4253 15.6093 43.8313 15.7307 44.382 15.852C44.9793 15.992 45.4693 16.1367 45.852 16.286C46.2347 16.426 46.566 16.6593 46.846 16.986C47.126 17.3127 47.266 17.7513 47.266 18.302C47.266 18.75 47.1447 19.1467 46.902 19.492C46.6593 19.8373 46.3093 20.108 45.852 20.304C45.3947 20.5 44.8533 20.598 44.228 20.598C43.1733 20.598 42.3287 20.3647 41.694 19.898C41.0593 19.4313 40.672 18.764 40.532 17.896H42.842C42.8793 18.232 43.0193 18.4887 43.262 18.666C43.514 18.8433 43.836 18.932 44.228 18.932C44.4987 18.932 44.704 18.8713 44.844 18.75C44.984 18.6193 45.054 18.4513 45.054 18.246C45.054 17.9753 44.9233 17.784 44.662 17.672C44.41 17.5507 43.9947 17.4247 43.416 17.294C42.8373 17.1727 42.3613 17.042 41.988 16.902C41.6147 16.762 41.2927 16.538 41.022 16.23C40.7513 15.9127 40.616 15.4833 40.616 14.942C40.616 14.242 40.882 13.6773 41.414 13.248C41.946 12.8093 42.6973 12.59 43.668 12.59ZM53.4636 12.59C54.1076 12.59 54.6816 12.7533 55.1856 13.08C55.699 13.3973 56.1003 13.8593 56.3896 14.466C56.6883 15.0633 56.8376 15.7727 56.8376 16.594C56.8376 17.406 56.6883 18.1153 56.3896 18.722C56.1003 19.3287 55.699 19.7953 55.1856 20.122C54.6816 20.4393 54.1076 20.598 53.4636 20.598C52.8663 20.598 52.353 20.4627 51.9236 20.192C51.4943 19.9213 51.1816 19.5527 50.9856 19.086V24.224H48.5916V12.688H50.9856V14.102C51.1816 13.6353 51.4943 13.2667 51.9236 12.996C52.353 12.7253 52.8663 12.59 53.4636 12.59ZM52.6936 14.69C52.1896 14.69 51.7743 14.8627 51.4476 15.208C51.1303 15.544 50.9716 16.006 50.9716 16.594C50.9716 17.1727 51.1303 17.6347 51.4476 17.98C51.7743 18.3253 52.1896 18.498 52.6936 18.498C53.207 18.498 53.6176 18.33 53.9256 17.994C54.243 17.658 54.4016 17.1913 54.4016 16.594C54.4016 15.9967 54.243 15.53 53.9256 15.194C53.6176 14.858 53.207 14.69 52.6936 14.69ZM63.0359 12.604C63.9319 12.604 64.6412 12.9027 65.1639 13.5C65.6959 14.0973 65.9619 14.9187 65.9619 15.964V20.5H63.5679V16.244C63.5679 15.7213 63.4279 15.3153 63.1479 15.026C62.8772 14.7273 62.5132 14.578 62.0559 14.578C61.5706 14.578 61.1832 14.732 60.8939 15.04C60.6139 15.348 60.4739 15.7867 60.4739 16.356V20.5H58.0799V10.14H60.4739V14.116C60.6979 13.6493 61.0292 13.2807 61.4679 13.01C61.9159 12.7393 62.4386 12.604 63.0359 12.604ZM74.9608 16.384C74.9608 16.58 74.9375 16.7947 74.8908 17.028H69.4728C69.5008 17.616 69.6502 18.0407 69.9208 18.302C70.1915 18.554 70.5368 18.68 70.9568 18.68C71.3115 18.68 71.6055 18.5913 71.8388 18.414C72.0722 18.2367 72.2262 18.008 72.3008 17.728H74.8348C74.7322 18.2787 74.5082 18.7733 74.1628 19.212C73.8175 19.6413 73.3788 19.982 72.8468 20.234C72.3148 20.4767 71.7222 20.598 71.0688 20.598C70.3035 20.598 69.6222 20.4393 69.0248 20.122C68.4368 19.7953 67.9748 19.3287 67.6388 18.722C67.3028 18.1153 67.1348 17.406 67.1348 16.594C67.1348 15.7727 67.2982 15.0633 67.6248 14.466C67.9608 13.8593 68.4275 13.3973 69.0248 13.08C69.6222 12.7533 70.3035 12.59 71.0688 12.59C71.8435 12.59 72.5248 12.7487 73.1128 13.066C73.7008 13.3833 74.1535 13.8313 74.4708 14.41C74.7975 14.9793 74.9608 15.6373 74.9608 16.384ZM72.5388 16.02C72.5482 15.5067 72.4082 15.124 72.1188 14.872C71.8388 14.6107 71.4888 14.48 71.0688 14.48C70.6302 14.48 70.2662 14.6107 69.9768 14.872C69.6875 15.1333 69.5242 15.516 69.4868 16.02H72.5388ZM78.6028 14.158C78.9015 13.682 79.2841 13.304 79.7508 13.024C80.2268 12.744 80.7401 12.604 81.2908 12.604V15.166H80.6048C79.9701 15.166 79.4755 15.3013 79.1208 15.572C78.7755 15.8427 78.6028 16.3 78.6028 16.944V20.5H76.2088V12.688H78.6028V14.158ZM89.7128 16.384C89.7128 16.58 89.6895 16.7947 89.6428 17.028H84.2248C84.2528 17.616 84.4021 18.0407 84.6728 18.302C84.9435 18.554 85.2888 18.68 85.7088 18.68C86.0635 18.68 86.3575 18.5913 86.5908 18.414C86.8241 18.2367 86.9781 18.008 87.0528 17.728H89.5868C89.4841 18.2787 89.2601 18.7733 88.9148 19.212C88.5695 19.6413 88.1308 19.982 87.5988 20.234C87.0668 20.4767 86.4741 20.598 85.8208 20.598C85.0555 20.598 84.3741 20.4393 83.7768 20.122C83.1888 19.7953 82.7268 19.3287 82.3908 18.722C82.0548 18.1153 81.8868 17.406 81.8868 16.594C81.8868 15.7727 82.0501 15.0633 82.3768 14.466C82.7128 13.8593 83.1795 13.3973 83.7768 13.08C84.3741 12.7533 85.0555 12.59 85.8208 12.59C86.5955 12.59 87.2768 12.7487 87.8648 13.066C88.4528 13.3833 88.9055 13.8313 89.2228 14.41C89.5495 14.9793 89.7128 15.6373 89.7128 16.384ZM87.2908 16.02C87.3001 15.5067 87.1601 15.124 86.8708 14.872C86.5908 14.6107 86.2408 14.48 85.8208 14.48C85.3821 14.48 85.0181 14.6107 84.7288 14.872C84.4395 15.1333 84.2761 15.516 84.2388 16.02H87.2908Z" fill="#3B4153"/>
</svg>
